<svg height='100px' width='100px'  fill="#000000" xmlns="http://www.w3.org/2000/svg" xmlns:xlink="http://www.w3.org/1999/xlink" version="1.1" x="0px" y="0px" viewBox="0 0 66 66" enable-background="new 0 0 66 66" xml:space="preserve"><g><g><path d="M35.3,23.6c-1,0-1.8,0.4-2.5,1c-1.4,1.4-1.4,3.6,0,5c1.3,1.3,3.7,1.3,5,0c1.4-1.4,1.4-3.6,0-5    C37.2,24,36.3,23.6,35.3,23.6z"></path></g><g><circle cx="35.3" cy="46.3" r="1.1"></circle></g><g><path d="M15.3,27.4c0,0.6,0.5,1.1,1.1,1.1h0c0.6,0,1.1-0.5,1.1-1.1C17.5,26,15.3,26,15.3,27.4z"></path></g><g><path d="M21.2,40L21.2,40c-0.4,0.4-0.4,1.1,0,1.5c1,1,2.5-0.5,1.5-1.5C22.5,39.8,21.6,39.6,21.2,40z"></path></g><g><path d="M22.7,13.2c-0.4-0.4-1.1-0.4-1.5,0c-0.4,0.4-0.4,1.1,0,1.5C22.2,15.7,23.7,14.2,22.7,13.2z"></path></g><g><path d="M44.9,26.3l-1.3-0.2c-0.4-0.1-0.7-0.4-0.8-0.8c-0.2-0.8-0.5-1.5-0.9-2.2c-0.2-0.3-0.2-0.8,0-1.1l0.8-1.1l-1.1-1.1    l-1.1,0.8c-0.3,0.2-0.8,0.2-1.1,0c-0.7-0.4-1.4-0.7-2.2-0.9c-0.4-0.1-0.7-0.4-0.7-0.8l-0.2-1.3l-1.6,0l-0.2,1.3    c-0.1,0.4-0.4,0.7-0.8,0.8c-0.8,0.2-1.5,0.5-2.2,0.9c-0.3,0.2-0.8,0.2-1.1,0l-1.1-0.8L28,20.9l0.8,1.1c0.2,0.3,0.2,0.8,0,1.1    c-0.4,0.7-0.7,1.4-0.9,2.2c-0.1,0.4-0.4,0.7-0.8,0.8l-1.3,0.2l0,1.6l1.3,0.2c0.4,0.1,0.7,0.4,0.8,0.7c0.2,0.8,0.5,1.5,0.9,2.2    c0.2,0.3,0.2,0.8,0,1.1L28,33.4l1.1,1.1l1.1-0.8c0.3-0.2,0.8-0.2,1.1,0c0.7,0.4,1.5,0.8,2.2,0.9c0.4,0.1,0.7,0.4,0.8,0.8l0.2,1.3    h1.6l0.2-1.3c0.1-0.4,0.4-0.7,0.8-0.8c0.8-0.2,1.5-0.5,2.2-0.9c0.3-0.2,0.8-0.2,1.1,0l1.1,0.8l1.1-1.1l-0.8-1.1    c-0.2-0.3-0.2-0.8,0-1.1c0.4-0.7,0.7-1.4,0.9-2.2c0.1-0.4,0.4-0.7,0.8-0.8l1.3-0.2L44.9,26.3z M39.3,31.1    c-1.1,1.1-2.5,1.6-3.9,1.6c-1.4,0-2.8-0.5-3.9-1.6c-2.2-2.2-2.2-5.7,0-7.9c2.2-2.2,5.7-2.2,7.9,0C41.5,25.4,41.5,28.9,39.3,31.1z"></path></g><g><circle cx="54.3" cy="27.4" r="1.1"></circle></g><g><path d="M49.5,14.7L49.5,14.7c0.4-0.4,0.4-1.1,0-1.5c-0.4-0.4-1.1-0.4-1.5,0c-0.4,0.4-0.4,1.1,0,1.5    C48.4,15.1,49.1,15.1,49.5,14.7z"></path></g><g><circle cx="35.3" cy="8.4" r="1.1"></circle></g><g><path d="M30.9,1.4c-0.1,0-10.3,1.3-16.9,11c-3.9,5.7-5.3,12.5-4.1,19.1l-5.1,9.3c-0.1,0.3-0.2,0.6-0.1,0.8    c0.1,0.3,0.3,0.5,0.6,0.6l6.8,2.6v7.5c0,2.8,2.3,5.1,5.1,5.1h5.7V64c0,0.5,0.4,1,1,1h24c0.5,0,1-0.5,1-1V49    C72.9,34.4,59.2-3.4,30.9,1.4z M44.3,17l1.7-1.7c-0.2-0.4-0.3-0.9-0.3-1.3c0-0.8,0.3-1.6,0.9-2.2c1.2-1.2,3.1-1.2,4.3,0    c0.6,0.6,0.9,1.4,0.9,2.2c0,0.8-0.3,1.6-0.9,2.2h0v0c-0.6,0.6-1.3,0.9-2.2,0.9c-0.5,0-0.9-0.1-1.3-0.3l-1.7,1.7    c-0.2,0.2-0.5,0.3-0.7,0.3c-0.3,0-0.5-0.1-0.7-0.3C43.9,18,43.9,17.4,44.3,17z M35.3,5.4c1.7,0,3.1,1.4,3.1,3.1    c0,1.3-0.9,2.5-2.1,2.9v2.3c0,0.6-0.4,1-1,1c-0.6,0-1-0.4-1-1v-2.3c-1.2-0.4-2.1-1.5-2.1-2.9C32.3,6.7,33.7,5.4,35.3,5.4z     M19.8,11.8C21.6,10,25,11.2,25,14c0,0.5-0.1,0.9-0.3,1.3l1.7,1.7c0.4,0.4,0.4,1,0,1.4c-0.2,0.2-0.5,0.3-0.7,0.3    c-0.3,0-0.5-0.1-0.7-0.3l-1.7-1.7C22.9,16.9,22.4,17,22,17c-0.8,0-1.6-0.3-2.2-0.9C18.6,15,18.6,13,19.8,11.8z M16.4,30.4    L16.4,30.4c-0.8,0-1.6-0.3-2.2-0.9c-0.6-0.6-0.9-1.3-0.9-2.2c0-1.7,1.4-3.1,3.1-3.1c1.3,0,2.5,0.9,2.9,2.1h2.3c0.6,0,1,0.4,1,1    c0,0.6-0.4,1-1,1h-2.3C18.9,29.6,17.7,30.4,16.4,30.4z M26.4,37.8l-1.7,1.7c0.6,1.1,0.4,2.6-0.6,3.5c-0.6,0.6-1.4,0.9-2.2,0.9    c-0.8,0-1.6-0.3-2.2-0.9c-0.6-0.6-0.9-1.3-0.9-2.2c0-0.8,0.3-1.6,0.9-2.2h0c0.9-0.9,2.4-1.1,3.5-0.6l1.7-1.7c0.4-0.4,1-0.4,1.4,0    C26.7,36.8,26.7,37.4,26.4,37.8z M35.3,49.4c-1.7,0-3.1-1.4-3.1-3.1c0-1.3,0.9-2.5,2.1-2.9v-2.3c0-0.6,0.4-1,1-1c0.6,0,1,0.4,1,1    v2.3c1.2,0.4,2.1,1.5,2.1,2.9C38.4,48,37,49.4,35.3,49.4z M41.1,36.6l-1.3-0.9c-0.5,0.3-1,0.5-1.6,0.7L38,37.9    c-0.1,0.5-0.5,0.8-1,0.8h-3.3c-0.5,0-0.9-0.3-1-0.8l-0.3-1.5c-0.5-0.2-1.1-0.4-1.6-0.7l-1.3,0.9c-0.4,0.3-0.9,0.2-1.3-0.1L26,34.2    c-0.3-0.3-0.4-0.9-0.1-1.3l0.9-1.3c-0.3-0.5-0.5-1-0.7-1.6l-1.5-0.3c-0.5-0.1-0.8-0.5-0.8-1l0-3.3c0-0.5,0.3-0.9,0.8-1l1.5-0.3    c0.2-0.5,0.4-1.1,0.7-1.6l-0.9-1.3c-0.3-0.4-0.2-0.9,0.1-1.3l2.3-2.3c0.3-0.3,0.9-0.4,1.3-0.1l1.3,0.9c0.5-0.3,1-0.5,1.6-0.7    l0.3-1.5c0.1-0.5,0.5-0.8,1-0.8l3.3,0c0.5,0,0.9,0.3,1,0.8l0.3,1.5c0.6,0.2,1.1,0.4,1.6,0.7l1.3-0.9c0.4-0.3,0.9-0.2,1.3,0.1    l2.3,2.3c0.3,0.3,0.4,0.9,0.1,1.3l-0.9,1.3c0.3,0.5,0.5,1,0.7,1.6l1.5,0.3c0.5,0.1,0.8,0.5,0.8,1l0,3.3c0,0.5-0.3,0.9-0.8,1    l-1.5,0.3c-0.2,0.6-0.4,1.1-0.7,1.6l0.9,1.3c0.3,0.4,0.2,0.9-0.1,1.3l-2.3,2.3C42,36.9,41.5,36.9,41.1,36.6z M50.9,42.9    c-0.6,0.6-1.4,0.9-2.2,0.9c-0.8,0-1.6-0.3-2.2-0.9c-0.6-0.6-0.9-1.3-0.9-2.2c0-0.5,0.1-0.9,0.3-1.3l-1.7-1.7c-0.4-0.4-0.4-1,0-1.4    c0.4-0.4,1-0.4,1.4,0l1.7,1.7c1.1-0.5,2.6-0.3,3.5,0.6c0.6,0.6,0.9,1.3,0.9,2.2C51.8,41.6,51.5,42.4,50.9,42.9z M54.3,30.4    c-1.3,0-2.5-0.9-2.9-2.1h-2.3c-0.6,0-1-0.4-1-1c0-0.6,0.4-1,1-1h2.3c0.4-1.2,1.5-2.1,2.9-2.1c1.7,0,3.1,1.4,3.1,3.1    S56,30.4,54.3,30.4z"></path></g><g><path d="M48,40c-1,1,0.5,2.5,1.5,1.5c0.4-0.4,0.4-1.1,0-1.5C49.3,39.8,48.4,39.6,48,40z"></path></g></g></svg>
